<mxfile host="app.diagrams.net" modified="2022-02-18T07:13:27.581Z" agent="5.0 (Windows NT 10.0) AppleWebKit/537.36 (KHTML, like Gecko) Chrome/99.0.7113.93 Safari/537.36" etag="mJuYxIlnHhr6VMWPx5oV" version="15.9.6" type="github">
  <diagram id="mcaDiGA-njHjp05HxspP" name="Page-1">
    <mxGraphModel dx="1422" dy="1968" grid="1" gridSize="10" guides="1" tooltips="1" connect="1" arrows="1" fold="1" page="1" pageScale="1" pageWidth="827" pageHeight="1169" math="0" shadow="0">
      <root>
        <mxCell id="0" />
        <mxCell id="1" parent="0" />
        <mxCell id="fB52Xmid75UIm_Ow4X55-1" value="" style="ellipse;whiteSpace=wrap;html=1;" vertex="1" parent="1">
          <mxGeometry x="150" y="210" width="600" height="280" as="geometry" />
        </mxCell>
        <mxCell id="fB52Xmid75UIm_Ow4X55-2" value="&lt;font style=&quot;vertical-align: inherit&quot;&gt;&lt;font style=&quot;vertical-align: inherit&quot;&gt;cmd父进程&lt;/font&gt;&lt;/font&gt;" style="text;html=1;strokeColor=none;fillColor=none;align=center;verticalAlign=middle;whiteSpace=wrap;rounded=0;" vertex="1" parent="1">
          <mxGeometry x="240" y="260" width="60" height="30" as="geometry" />
        </mxCell>
        <mxCell id="fB52Xmid75UIm_Ow4X55-3" value="&lt;font style=&quot;vertical-align: inherit ; font-size: 22px&quot;&gt;&lt;font style=&quot;vertical-align: inherit ; font-size: 22px&quot;&gt;&lt;font style=&quot;vertical-align: inherit ; font-size: 22px&quot;&gt;&lt;font style=&quot;vertical-align: inherit ; font-size: 22px&quot;&gt;通过匿名管道进行进程通信&lt;/font&gt;&lt;/font&gt;&lt;/font&gt;&lt;/font&gt;" style="text;html=1;strokeColor=none;fillColor=none;align=center;verticalAlign=middle;whiteSpace=wrap;rounded=0;" vertex="1" parent="1">
          <mxGeometry x="240" y="-10" width="340" height="60" as="geometry" />
        </mxCell>
        <mxCell id="fB52Xmid75UIm_Ow4X55-4" value="" style="ellipse;whiteSpace=wrap;html=1;fontSize=22;" vertex="1" parent="1">
          <mxGeometry x="450" y="320" width="260" height="130" as="geometry" />
        </mxCell>
        <mxCell id="fB52Xmid75UIm_Ow4X55-5" value="&lt;span style=&quot;font-size: 12px&quot;&gt;cmd子进程&lt;/span&gt;" style="text;html=1;strokeColor=none;fillColor=none;align=center;verticalAlign=middle;whiteSpace=wrap;rounded=0;fontSize=22;" vertex="1" parent="1">
          <mxGeometry x="480" y="335" width="90" height="30" as="geometry" />
        </mxCell>
        <mxCell id="fB52Xmid75UIm_Ow4X55-6" value="" style="shape=flexArrow;endArrow=classic;html=1;rounded=0;fontSize=12;entryX=0;entryY=0.5;entryDx=0;entryDy=0;" edge="1" parent="1" target="fB52Xmid75UIm_Ow4X55-10">
          <mxGeometry width="50" height="50" relative="1" as="geometry">
            <mxPoint x="340" y="310" as="sourcePoint" />
            <mxPoint x="440" y="360" as="targetPoint" />
          </mxGeometry>
        </mxCell>
        <mxCell id="fB52Xmid75UIm_Ow4X55-7" value="" style="shape=flexArrow;endArrow=classic;html=1;rounded=0;fontSize=12;entryX=0.235;entryY=0.923;entryDx=0;entryDy=0;entryPerimeter=0;exitX=0.638;exitY=-0.05;exitDx=0;exitDy=0;exitPerimeter=0;" edge="1" parent="1" source="fB52Xmid75UIm_Ow4X55-10" target="fB52Xmid75UIm_Ow4X55-4">
          <mxGeometry width="50" height="50" relative="1" as="geometry">
            <mxPoint x="390" y="410" as="sourcePoint" />
            <mxPoint x="440" y="360" as="targetPoint" />
            <Array as="points" />
          </mxGeometry>
        </mxCell>
        <mxCell id="fB52Xmid75UIm_Ow4X55-8" value="写管道" style="text;html=1;strokeColor=none;fillColor=none;align=center;verticalAlign=middle;whiteSpace=wrap;rounded=0;fontSize=12;" vertex="1" parent="1">
          <mxGeometry x="310" y="390" width="60" height="30" as="geometry" />
        </mxCell>
        <mxCell id="fB52Xmid75UIm_Ow4X55-9" value="读管道" style="text;html=1;strokeColor=none;fillColor=none;align=center;verticalAlign=middle;whiteSpace=wrap;rounded=0;fontSize=12;" vertex="1" parent="1">
          <mxGeometry x="519" y="490" width="60" height="30" as="geometry" />
        </mxCell>
        <mxCell id="fB52Xmid75UIm_Ow4X55-10" value="缓冲区" style="whiteSpace=wrap;html=1;aspect=fixed;fontSize=12;" vertex="1" parent="1">
          <mxGeometry x="440" y="530" width="80" height="80" as="geometry" />
        </mxCell>
        <mxCell id="fB52Xmid75UIm_Ow4X55-11" value="目标机&lt;br&gt;" style="shape=mxgraph.cisco.computers_and_peripherals.terminal;html=1;pointerEvents=1;dashed=0;fillColor=#036897;strokeColor=#ffffff;strokeWidth=2;verticalLabelPosition=bottom;verticalAlign=top;align=center;outlineConnect=0;fontSize=12;" vertex="1" parent="1">
          <mxGeometry x="20" y="290" width="130" height="100" as="geometry" />
        </mxCell>
        <mxCell id="fB52Xmid75UIm_Ow4X55-12" value="攻击机&lt;br&gt;" style="shape=mxgraph.cisco.computers_and_peripherals.terminal;html=1;pointerEvents=1;dashed=0;fillColor=#036897;strokeColor=#ffffff;strokeWidth=2;verticalLabelPosition=bottom;verticalAlign=top;align=center;outlineConnect=0;fontSize=12;" vertex="1" parent="1">
          <mxGeometry x="650" y="-30" width="130" height="113.5" as="geometry" />
        </mxCell>
        <mxCell id="fB52Xmid75UIm_Ow4X55-13" value="" style="shape=flexArrow;endArrow=classic;html=1;rounded=0;fontSize=12;exitX=0.5;exitY=1;exitDx=0;exitDy=0;exitPerimeter=0;entryX=0.258;entryY=0.061;entryDx=0;entryDy=0;entryPerimeter=0;" edge="1" parent="1" source="fB52Xmid75UIm_Ow4X55-12" target="fB52Xmid75UIm_Ow4X55-1">
          <mxGeometry width="50" height="50" relative="1" as="geometry">
            <mxPoint x="680" y="280" as="sourcePoint" />
            <mxPoint x="730" y="230" as="targetPoint" />
          </mxGeometry>
        </mxCell>
        <mxCell id="fB52Xmid75UIm_Ow4X55-14" value="socket传送命令" style="text;html=1;strokeColor=none;fillColor=none;align=center;verticalAlign=middle;whiteSpace=wrap;rounded=0;fontSize=12;" vertex="1" parent="1">
          <mxGeometry x="450" y="110" width="60" height="30" as="geometry" />
        </mxCell>
        <mxCell id="fB52Xmid75UIm_Ow4X55-15" value="执行结果" style="rounded=1;whiteSpace=wrap;html=1;fontSize=12;" vertex="1" parent="1">
          <mxGeometry x="294" y="245" width="120" height="60" as="geometry" />
        </mxCell>
        <mxCell id="fB52Xmid75UIm_Ow4X55-16" value="" style="shape=flexArrow;endArrow=classic;html=1;rounded=0;fontSize=12;" edge="1" parent="1" target="fB52Xmid75UIm_Ow4X55-12">
          <mxGeometry width="50" height="50" relative="1" as="geometry">
            <mxPoint x="670" y="320" as="sourcePoint" />
            <mxPoint x="720" y="270" as="targetPoint" />
          </mxGeometry>
        </mxCell>
        <mxCell id="fB52Xmid75UIm_Ow4X55-17" value="socket传送结果" style="text;html=1;strokeColor=none;fillColor=none;align=center;verticalAlign=middle;whiteSpace=wrap;rounded=0;fontSize=12;" vertex="1" parent="1">
          <mxGeometry x="700" y="180" width="60" height="30" as="geometry" />
        </mxCell>
      </root>
    </mxGraphModel>
  </diagram>
</mxfile>
